<?xml version="1.0" encoding="utf-8" standalone="no"?>
<!DOCTYPE svg PUBLIC "-//W3C//DTD SVG 1.1//EN"
  "http://www.w3.org/Graphics/SVG/1.1/DTD/svg11.dtd">
<!-- Created with matplotlib (https://matplotlib.org/) -->
<svg height="576pt" version="1.1" viewBox="0 0 576 576" width="576pt" xmlns="http://www.w3.org/2000/svg" xmlns:xlink="http://www.w3.org/1999/xlink">
 <metadata>
  <rdf:RDF xmlns:cc="http://creativecommons.org/ns#" xmlns:dc="http://purl.org/dc/elements/1.1/" xmlns:rdf="http://www.w3.org/1999/02/22-rdf-syntax-ns#">
   <cc:Work>
    <dc:type rdf:resource="http://purl.org/dc/dcmitype/StillImage"/>
    <dc:date>2020-11-29T22:59:53.961442</dc:date>
    <dc:format>image/svg+xml</dc:format>
    <dc:creator>
     <cc:Agent>
      <dc:title>Matplotlib v3.3.3, https://matplotlib.org/</dc:title>
     </cc:Agent>
    </dc:creator>
   </cc:Work>
  </rdf:RDF>
 </metadata>
 <defs>
  <style type="text/css">*{stroke-linecap:butt;stroke-linejoin:round;}</style>
 </defs>
 <g id="figure_1">
  <g id="axes_1">
   <g id="LineCollection_1">
    <path clip-path="url(#p8eb41a2513)" d="M 127.188731 384.281821 
L 124.520479 391.119812 
L 115.097986 416.137106 
L 111.957156 424.407028 
L 106.402538 439.048008 
L 103.894235 445.65772 
L 103.159921 447.598091 
L 101.029681 453.211677 
" style="fill:none;stroke:#999999;"/>
    <path clip-path="url(#p8eb41a2513)" d="M 127.188731 384.281821 
L 131.929059 385.931655 
L 165.772966 398.985058 
" style="fill:none;stroke:#999999;"/>
    <path clip-path="url(#p8eb41a2513)" d="M 101.029681 453.211677 
L 98.572272 459.686497 
L 77.422557 515.396929 
L 74.398053 523.376314 
" style="fill:none;stroke:#999999;"/>
    <path clip-path="url(#p8eb41a2513)" d="M 101.029681 453.211677 
L 94.42085 450.700609 
L 87.950156 448.251799 
L 86.728722 447.784864 
L 44.225719 431.649696 
L 37.914975 429.252767 
L 33.065591 427.416159 
L 30.171955 426.337023 
" style="fill:none;stroke:#999999;"/>
    <path clip-path="url(#p8eb41a2513)" d="M 74.398053 523.376314 
L 92.959491 530.006779 
L 113.142238 537.664499 
" style="fill:none;stroke:#999999;"/>
    <path clip-path="url(#p8eb41a2513)" d="M 296.102907 52.644438 
L 292.278655 51.181378 
L 262.317164 39.736303 
L 258.042144 38.096846 
" style="fill:none;stroke:#999999;"/>
    <path clip-path="url(#p8eb41a2513)" d="M 270.234675 121.999723 
L 331.313658 145.761483 
L 341.601333 149.849751 
" style="fill:none;stroke:#999999;"/>
    <path clip-path="url(#p8eb41a2513)" d="M 270.234675 121.999723 
L 288.781573 72.266049 
L 293.027511 60.872856 
L 296.102907 52.644438 
" style="fill:none;stroke:#999999;"/>
    <path clip-path="url(#p8eb41a2513)" d="M 245.115299 189.923077 
L 246.61301 185.637659 
L 266.992058 130.73658 
L 270.234675 121.999723 
" style="fill:none;stroke:#999999;"/>
    <path clip-path="url(#p8eb41a2513)" d="M 245.115299 189.923077 
L 240.135046 187.97233 
L 210.75519 176.6829 
L 205.433227 174.680271 
" style="fill:none;stroke:#999999;"/>
    <path clip-path="url(#p8eb41a2513)" d="M 217.887494 261.685667 
L 219.915947 259.444383 
L 221.399117 254.702407 
L 242.287097 198.006226 
L 242.861462 196.460155 
L 243.973839 193.243498 
L 245.115299 189.923077 
" style="fill:none;stroke:#999999;"/>
    <path clip-path="url(#p8eb41a2513)" d="M 217.887494 261.685667 
L 226.488426 265.182485 
L 279.119155 284.980493 
L 288.992415 288.830105 
" style="fill:none;stroke:#999999;"/>
    <path clip-path="url(#p8eb41a2513)" d="M 191.961098 329.992944 
L 187.511588 328.291229 
L 157.528285 316.835778 
L 157.092059 316.669757 
L 152.620737 314.957665 
" style="fill:none;stroke:#999999;"/>
    <path clip-path="url(#p8eb41a2513)" d="M 191.961098 329.992944 
L 193.851413 325.012313 
L 194.847463 322.397482 
L 215.291946 268.544411 
L 216.004449 266.655921 
L 217.887494 261.685667 
" style="fill:none;stroke:#999999;"/>
    <path clip-path="url(#p8eb41a2513)" d="M 165.772966 398.985058 
L 170.506024 400.790537 
L 227.622615 422.549668 
L 237.56858 426.31627 
" style="fill:none;stroke:#999999;"/>
    <path clip-path="url(#p8eb41a2513)" d="M 165.772966 398.985058 
L 189.227412 337.204483 
L 191.961098 329.992944 
" style="fill:none;stroke:#999999;"/>
    <path clip-path="url(#p8eb41a2513)" d="M 139.635728 467.863033 
L 122.826466 461.481599 
" style="fill:none;stroke:#999999;"/>
    <path clip-path="url(#p8eb41a2513)" d="M 139.635728 467.863033 
L 141.845942 462.04192 
L 162.632135 407.254981 
L 163.250123 405.636276 
L 165.772966 398.985058 
" style="fill:none;stroke:#999999;"/>
    <path clip-path="url(#p8eb41a2513)" d="M 113.142238 537.664499 
L 118.057056 539.532236 
L 175.53717 561.353625 
L 184.959662 564.923077 
" style="fill:none;stroke:#999999;"/>
    <path clip-path="url(#p8eb41a2513)" d="M 113.142238 537.664499 
L 115.890465 530.432208 
L 137.156507 474.400111 
L 139.635728 467.863033 
" style="fill:none;stroke:#999999;"/>
    <path clip-path="url(#p8eb41a2513)" d="M 545.115542 68.852241 
L 542.330963 76.157167 
L 521.312115 131.877975 
L 519.029196 137.833979 
" style="fill:none;stroke:#999999;"/>
    <path clip-path="url(#p8eb41a2513)" d="M 519.029196 137.833979 
L 516.208265 146.124654 
L 496.650776 195.775318 
L 494.23699 201.980354 
L 492.484813 207.095877 
" style="fill:none;stroke:#999999;"/>
    <path clip-path="url(#p8eb41a2513)" d="M 519.029196 137.833979 
L 517.204316 137.138766 
L 508.276213 133.724958 
L 449.65464 111.322496 
L 440.479342 107.815302 
L 438.530864 107.068207 
" style="fill:none;stroke:#999999;"/>
    <path clip-path="url(#p8eb41a2513)" d="M 492.484813 207.095877 
L 501.143909 210.416298 
L 553.760097 230.338821 
L 554.865204 230.76425 
L 563.989609 234.229939 
" style="fill:none;stroke:#999999;"/>
    <path clip-path="url(#p8eb41a2513)" d="M 492.484813 207.095877 
L 490.652662 212.429303 
L 467.678065 271.999723 
L 466.376656 275.392778 
" style="fill:none;stroke:#999999;"/>
    <path clip-path="url(#p8eb41a2513)" d="M 466.376656 275.392778 
L 462.370643 273.75332 
L 457.630315 271.81295 
L 395.511659 247.843664 
L 390.75679 246.027809 
L 386.990701 244.543996 
" style="fill:none;stroke:#999999;"/>
    <path clip-path="url(#p8eb41a2513)" d="M 466.376656 275.392778 
L 465.344254 278.09062 
L 464.057385 281.462922 
L 442.471443 339.705174 
L 440.93011 343.596292 
L 439.708676 346.709186 
" style="fill:none;stroke:#999999;"/>
    <path clip-path="url(#p8eb41a2513)" d="M 439.708676 346.709186 
L 436.996801 353.588683 
L 417.163035 406.175844 
L 413.702305 414.362756 
" style="fill:none;stroke:#999999;"/>
    <path clip-path="url(#p8eb41a2513)" d="M 439.708676 346.709186 
L 444.129104 348.421278 
L 501.471079 370.585086 
L 510.995358 374.258301 
" style="fill:none;stroke:#999999;"/>
    <path clip-path="url(#p8eb41a2513)" d="M 413.702305 414.362756 
L 412.415437 413.947703 
L 400.753648 409.568899 
L 387.048865 404.121334 
L 343.927874 387.913531 
L 335.79225 384.842142 
L 334.192752 384.240315 
" style="fill:none;stroke:#999999;"/>
    <path clip-path="url(#p8eb41a2513)" d="M 413.702305 414.362756 
L 410.532392 421.875208 
L 389.782551 475.385861 
L 386.772588 483.302988 
" style="fill:none;stroke:#999999;"/>
    <path clip-path="url(#p8eb41a2513)" d="M 386.772588 483.302988 
L 392.516237 485.513143 
L 448.985759 506.763835 
L 459.36795 510.675706 
" style="fill:none;stroke:#999999;"/>
    <path clip-path="url(#p8eb41a2513)" d="M 386.772588 483.302988 
L 383.995279 490.639043 
L 363.623501 544.315717 
L 360.584457 552.305479 
" style="fill:none;stroke:#999999;"/>
    <path clip-path="url(#p8eb41a2513)" d="M 360.584457 552.305479 
L 359.893765 552.046071 
L 350.733008 548.570006 
L 342.161157 545.311843 
L 291.617045 526.126038 
L 282.64532 522.774488 
L 281.612917 521.965136 
" style="fill:none;stroke:#999999;"/>
    <path clip-path="url(#p8eb41a2513)" d="M 86.677829 52.312396 
L 94.92251 55.34228 
L 107.384048 60.084256 
L 152.388083 77.236303 
L 161.148965 80.587853 
" style="fill:none;stroke:#999999;"/>
    <path clip-path="url(#p8eb41a2513)" d="M 86.677829 52.312396 
L 84.460344 58.361787 
L 70.748291 93.589375 
L 62.34366 115.192861 
L 60.722352 119.364139 
" style="fill:none;stroke:#999999;"/>
    <path clip-path="url(#p8eb41a2513)" d="M 60.722352 119.364139 
L 59.529999 122.68456 
L 59.450024 122.912839 
L 58.112263 126.71057 
L 57.850527 127.436912 
L 36.67173 183.489762 
L 36.148258 184.994328 
L 34.832308 188.584532 
L 34.737792 188.833564 
L 33.261893 192.652048 
" style="fill:none;stroke:#999999;"/>
    <path clip-path="url(#p8eb41a2513)" d="M 33.261893 192.652048 
L 41.841014 195.764942 
L 98.390511 216.579828 
L 107.92206 220.076646 
" style="fill:none;stroke:#999999;"/>
    <path clip-path="url(#p8eb41a2513)" d="M 281.612917 521.965136 
L 284.593798 514.753597 
L 305.918004 458.316823 
L 307.779237 453.045656 
" style="fill:none;stroke:#999999;"/>
    <path clip-path="url(#p8eb41a2513)" d="M 281.612917 521.965136 
L 275.033167 519.256918 
L 218.861733 497.933592 
L 211.453153 495.12161 
" style="fill:none;stroke:#999999;"/>
    <path clip-path="url(#p8eb41a2513)" d="M 211.453153 495.12161 
L 208.973932 501.658688 
L 187.540669 558.116215 
L 184.959662 564.923077 
" style="fill:none;stroke:#999999;"/>
    <path clip-path="url(#p8eb41a2513)" d="M 211.453153 495.12161 
L 201.892522 491.500277 
L 198.591741 490.244743 
L 172.592641 480.376868 
L 144.594169 469.751522 
L 139.635728 467.863033 
" style="fill:none;stroke:#999999;"/>
    <path clip-path="url(#p8eb41a2513)" d="M 30.171955 426.337023 
L 32.294924 420.204621 
L 35.610245 411.125346 
L 53.837243 363.072634 
L 56.105621 356.940232 
" style="fill:none;stroke:#999999;"/>
    <path clip-path="url(#p8eb41a2513)" d="M 258.042144 38.096846 
L 234.173284 100.21984 
L 231.454138 107.28611 
" style="fill:none;stroke:#999999;"/>
    <path clip-path="url(#p8eb41a2513)" d="M 258.042144 38.096846 
L 223.209457 24.784034 
L 195.051036 13.920033 
L 190.332519 12.218318 
L 187.337097 11.076923 
" style="fill:none;stroke:#999999;"/>
    <path clip-path="url(#p8eb41a2513)" d="M 231.454138 107.28611 
L 270.234675 121.999723 
" style="fill:none;stroke:#999999;"/>
    <path clip-path="url(#p8eb41a2513)" d="M 231.454138 107.28611 
L 207.46168 169.128943 
L 206.930938 170.498616 
L 205.433227 174.680271 
" style="fill:none;stroke:#999999;"/>
    <path clip-path="url(#p8eb41a2513)" d="M 205.433227 174.680271 
L 204.204522 178.104455 
L 202.808597 182.005949 
L 181.455309 240.600996 
L 179.870353 244.232706 
L 178.736164 246.857914 
" style="fill:none;stroke:#999999;"/>
    <path clip-path="url(#p8eb41a2513)" d="M 205.433227 174.680271 
L 199.551439 172.45974 
L 143.28549 151.115661 
L 138.457916 149.237548 
L 135.004456 147.867875 
" style="fill:none;stroke:#999999;"/>
    <path clip-path="url(#p8eb41a2513)" d="M 178.736164 246.857914 
L 176.787686 251.340481 
L 155.30353 307.891395 
L 154.627379 309.676121 
L 152.620737 314.957665 
" style="fill:none;stroke:#999999;"/>
    <path clip-path="url(#p8eb41a2513)" d="M 178.736164 246.857914 
L 183.091159 248.5285 
L 212.696398 259.859436 
L 217.887494 261.685667 
" style="fill:none;stroke:#999999;"/>
    <path clip-path="url(#p8eb41a2513)" d="M 152.620737 314.957665 
L 130.227776 376.001522 
L 127.188731 384.281821 
" style="fill:none;stroke:#999999;"/>
    <path clip-path="url(#p8eb41a2513)" d="M 152.620737 314.957665 
L 125.996379 304.726619 
L 90.843792 291.216657 
L 85.54364 289.120642 
L 82.380998 287.80285 
" style="fill:none;stroke:#999999;"/>
    <path clip-path="url(#p8eb41a2513)" d="M 559.540099 469.824156 
L 549.921304 466.140564 
L 492.950121 444.27767 
L 485.570623 441.444936 
" style="fill:none;stroke:#999999;"/>
    <path clip-path="url(#p8eb41a2513)" d="M 559.540099 469.824156 
L 557.126312 476.143331 
L 535.962056 532.5386 
L 533.359237 539.148312 
" style="fill:none;stroke:#999999;"/>
    <path clip-path="url(#p8eb41a2513)" d="M 485.570623 441.444936 
L 475.232055 437.553818 
L 418.8934 416.375761 
L 413.702305 414.362756 
" style="fill:none;stroke:#999999;"/>
    <path clip-path="url(#p8eb41a2513)" d="M 485.570623 441.444936 
L 487.98441 435.063503 
L 509.475836 378.273935 
L 510.995358 374.258301 
" style="fill:none;stroke:#999999;"/>
    <path clip-path="url(#p8eb41a2513)" d="M 334.192752 384.240315 
L 337.529885 376.011898 
L 359.115827 320.830659 
L 360.613538 316.213199 
" style="fill:none;stroke:#999999;"/>
    <path clip-path="url(#p8eb41a2513)" d="M 334.192752 384.240315 
L 328.340047 382.03016 
L 271.121669 360.136137 
L 263.771252 357.282651 
" style="fill:none;stroke:#999999;"/>
    <path clip-path="url(#p8eb41a2513)" d="M 263.771252 357.282651 
L 254.210621 353.56793 
L 207.287189 335.793304 
L 197.988294 332.275733 
L 191.961098 329.992944 
" style="fill:none;stroke:#999999;"/>
    <path clip-path="url(#p8eb41a2513)" d="M 263.771252 357.282651 
L 261.26295 363.892363 
L 240.113235 419.613171 
L 237.56858 426.31627 
" style="fill:none;stroke:#999999;"/>
    <path clip-path="url(#p8eb41a2513)" d="M 412.022833 176.56876 
L 413.934959 177.295102 
L 423.386533 180.885307 
L 481.782723 203.09062 
L 490.209165 206.234643 
L 492.484813 207.095877 
" style="fill:none;stroke:#999999;"/>
    <path clip-path="url(#p8eb41a2513)" d="M 412.022833 176.56876 
L 414.131261 170.623132 
L 436.582386 111.965827 
L 438.530864 107.068207 
" style="fill:none;stroke:#999999;"/>
    <path clip-path="url(#p8eb41a2513)" d="M 341.601333 149.849751 
L 349.177133 152.72399 
L 405.014127 173.870919 
L 412.022833 176.56876 
" style="fill:none;stroke:#999999;"/>
    <path clip-path="url(#p8eb41a2513)" d="M 341.601333 149.849751 
L 339.347496 155.743498 
L 320.895114 205.497925 
L 317.885151 213.19715 
L 316.22022 217.451439 
" style="fill:none;stroke:#999999;"/>
    <path clip-path="url(#p8eb41a2513)" d="M 12.010391 23.756779 
L 20.633135 27.035695 
L 78.418607 49.282512 
L 83.675137 51.212507 
L 86.677829 52.312396 
" style="fill:none;stroke:#999999;"/>
    <path clip-path="url(#p8eb41a2513)" d="M 464.980731 38.325125 
L 466.863776 39.051467 
L 475.079375 42.216242 
L 535.067791 64.9715 
L 543.661454 68.281544 
L 545.115542 68.852241 
" style="fill:none;stroke:#999999;"/>
    <path clip-path="url(#p8eb41a2513)" d="M 394.53015 11.36746 
L 392.036388 17.821527 
L 386.939808 31.217349 
L 370.733993 73.646099 
L 368.21115 80.203929 
" style="fill:none;stroke:#999999;"/>
    <path clip-path="url(#p8eb41a2513)" d="M 394.53015 11.36746 
L 401.706076 14.065302 
L 458.161057 35.699917 
L 464.980731 38.325125 
" style="fill:none;stroke:#999999;"/>
    <path clip-path="url(#p8eb41a2513)" d="M 459.36795 510.675706 
L 467.961613 513.996126 
L 524.809198 535.77601 
L 533.359237 539.148312 
" style="fill:none;stroke:#999999;"/>
    <path clip-path="url(#p8eb41a2513)" d="M 459.36795 510.675706 
L 461.687221 504.55368 
L 483.06232 448.054649 
L 485.570623 441.444936 
" style="fill:none;stroke:#999999;"/>
    <path clip-path="url(#p8eb41a2513)" d="M 307.779237 453.045656 
L 309.037024 453.626729 
L 317.841529 456.853763 
L 375.009013 478.789292 
L 385.849242 482.950194 
L 386.772588 483.302988 
" style="fill:none;stroke:#999999;"/>
    <path clip-path="url(#p8eb41a2513)" d="M 307.779237 453.045656 
L 311.080018 444.371057 
L 331.720802 390.341588 
L 334.192752 384.240315 
" style="fill:none;stroke:#999999;"/>
    <path clip-path="url(#p8eb41a2513)" d="M 237.56858 426.31627 
L 244.831751 429.07637 
L 303.591463 451.644853 
L 307.779237 453.045656 
" style="fill:none;stroke:#999999;"/>
    <path clip-path="url(#p8eb41a2513)" d="M 237.56858 426.31627 
L 235.220227 432.51093 
L 213.619744 489.113724 
L 211.453153 495.12161 
" style="fill:none;stroke:#999999;"/>
    <path clip-path="url(#p8eb41a2513)" d="M 56.105621 356.940232 
L 59.260993 358.320282 
L 64.568415 360.395545 
L 85.514558 368.385307 
L 99.655568 373.780991 
L 127.188731 384.281821 
" style="fill:none;stroke:#999999;"/>
    <path clip-path="url(#p8eb41a2513)" d="M 56.105621 356.940232 
L 58.446703 350.44466 
L 80.039916 293.935252 
L 82.380998 287.80285 
" style="fill:none;stroke:#999999;"/>
    <path clip-path="url(#p8eb41a2513)" d="M 438.530864 107.068207 
L 440.828324 100.987687 
L 461.970769 46.387521 
L 464.980731 38.325125 
" style="fill:none;stroke:#999999;"/>
    <path clip-path="url(#p8eb41a2513)" d="M 438.530864 107.068207 
L 431.543969 104.401494 
L 375.561567 82.984781 
L 368.21115 80.203929 
" style="fill:none;stroke:#999999;"/>
    <path clip-path="url(#p8eb41a2513)" d="M 368.21115 80.203929 
L 358.439676 76.582595 
L 301.439412 54.698949 
L 296.102907 52.644438 
" style="fill:none;stroke:#999999;"/>
    <path clip-path="url(#p8eb41a2513)" d="M 368.21115 80.203929 
L 365.673766 86.855147 
L 357.116456 109.247233 
L 344.400453 142.524073 
L 341.601333 149.849751 
" style="fill:none;stroke:#999999;"/>
    <path clip-path="url(#p8eb41a2513)" d="M 316.22022 217.451439 
L 315.100572 220.315302 
L 313.450182 224.548838 
L 310.970961 230.888766 
L 300.516066 257.950194 
L 294.030832 275.382402 
L 291.464366 282.230769 
L 289.973925 286.22565 
L 288.992415 288.830105 
" style="fill:none;stroke:#999999;"/>
    <path clip-path="url(#p8eb41a2513)" d="M 316.22022 217.451439 
L 307.546583 214.141395 
L 250.626294 192.091727 
L 245.115299 189.923077 
" style="fill:none;stroke:#999999;"/>
    <path clip-path="url(#p8eb41a2513)" d="M 288.992415 288.830105 
L 295.310429 291.23741 
L 328.499997 303.875761 
L 347.424957 311.087299 
L 355.262493 314.065302 
L 360.613538 316.213199 
" style="fill:none;stroke:#999999;"/>
    <path clip-path="url(#p8eb41a2513)" d="M 288.992415 288.830105 
L 287.283861 293.395683 
L 284.084867 301.945766 
L 281.954628 309.375208 
L 266.832108 349.230631 
L 266.155957 351.004981 
L 263.771252 357.282651 
" style="fill:none;stroke:#999999;"/>
    <path clip-path="url(#p8eb41a2513)" d="M 386.990701 244.543996 
L 382.919254 242.977172 
L 349.11897 230.037908 
L 331.088274 223.137659 
L 323.003542 220.045517 
L 316.22022 217.451439 
" style="fill:none;stroke:#999999;"/>
    <path clip-path="url(#p8eb41a2513)" d="M 386.990701 244.543996 
L 389.150023 238.847399 
L 409.950757 181.881433 
L 412.022833 176.56876 
" style="fill:none;stroke:#999999;"/>
    <path clip-path="url(#p8eb41a2513)" d="M 360.613538 316.213199 
L 361.856784 313.442723 
L 363.100029 309.925152 
L 384.140688 252.046071 
L 385.97284 247.221085 
L 386.990701 244.543996 
" style="fill:none;stroke:#999999;"/>
    <path clip-path="url(#p8eb41a2513)" d="M 360.613538 316.213199 
L 363.172734 316.949917 
L 368.014848 318.796901 
L 429.799063 342.86995 
L 435.099215 344.92446 
L 439.708676 346.709186 
" style="fill:none;stroke:#999999;"/>
    <path clip-path="url(#p8eb41a2513)" d="M 538.194081 302.381572 
L 528.7934 298.915883 
L 471.233312 277.364278 
L 466.376656 275.392778 
" style="fill:none;stroke:#999999;"/>
    <path clip-path="url(#p8eb41a2513)" d="M 538.194081 302.381572 
L 539.968069 297.701854 
L 553.193003 262.744051 
L 561.466766 240.881157 
L 563.989609 234.229939 
" style="fill:none;stroke:#999999;"/>
    <path clip-path="url(#p8eb41a2513)" d="M 510.995358 374.258301 
L 512.274956 370.875623 
L 513.736315 367.005257 
L 535.634886 309.146929 
L 537.154408 305.120919 
L 538.194081 302.381572 
" style="fill:none;stroke:#999999;"/>
    <path clip-path="url(#p8eb41a2513)" d="M 135.004456 147.867875 
L 136.487626 143.655091 
L 137.672708 140.407305 
L 158.393468 87.311704 
L 161.148965 80.587853 
" style="fill:none;stroke:#999999;"/>
    <path clip-path="url(#p8eb41a2513)" d="M 135.004456 147.867875 
L 128.279298 145.190786 
L 125.000328 144.028639 
L 68.75619 122.259131 
L 60.722352 119.364139 
" style="fill:none;stroke:#999999;"/>
    <path clip-path="url(#p8eb41a2513)" d="M 107.92206 220.076646 
L 109.041708 217.10902 
L 110.481256 213.290537 
L 132.292581 155.069037 
L 133.761211 151.084532 
L 135.004456 147.867875 
" style="fill:none;stroke:#999999;"/>
    <path clip-path="url(#p8eb41a2513)" d="M 107.92206 220.076646 
L 111.390061 221.352933 
L 116.159471 223.10653 
L 172.047358 244.30534 
L 178.736164 246.857914 
" style="fill:none;stroke:#999999;"/>
    <path clip-path="url(#p8eb41a2513)" d="M 161.148965 80.587853 
L 164.231633 81.770753 
L 168.615709 83.451716 
L 184.850606 89.60487 
L 231.454138 107.28611 
" style="fill:none;stroke:#999999;"/>
    <path clip-path="url(#p8eb41a2513)" d="M 161.148965 80.587853 
L 163.584563 74.071527 
L 168.812011 60.706835 
L 174.642905 45.069729 
L 184.668845 18.143193 
L 185.09053 17.05368 
L 187.337097 11.076923 
" style="fill:none;stroke:#999999;"/>
    <path clip-path="url(#p8eb41a2513)" d="M 82.380998 287.80285 
L 84.925653 281.286525 
L 106.417079 224.227172 
L 107.92206 220.076646 
" style="fill:none;stroke:#999999;"/>
    <path clip-path="url(#p8eb41a2513)" d="M 122.826466 461.481599 
L 121.40146 462.373962 
L 118.914968 461.460847 
L 115.257936 459.935529 
L 115.221584 458.596984 
" style="fill:none;stroke:#999999;"/>
    <path clip-path="url(#p8eb41a2513)" d="M 122.826466 461.481599 
L 122.143045 460.091173 
L 119.721987 459.157305 
L 116.493911 457.995158 
L 115.221584 458.596984 
" style="fill:none;stroke:#999999;"/>
    <path clip-path="url(#p8eb41a2513)" d="M 115.221584 458.596984 
L 101.029681 453.211677 
" style="fill:none;stroke:#999999;"/>
   </g>
   <g id="PathCollection_1">
    <defs>
     <path d="M 0 1.936492 
C 0.513564 1.936492 1.006162 1.732451 1.369306 1.369306 
C 1.732451 1.006162 1.936492 0.513564 1.936492 -0 
C 1.936492 -0.513564 1.732451 -1.006162 1.369306 -1.369306 
C 1.006162 -1.732451 0.513564 -1.936492 0 -1.936492 
C -0.513564 -1.936492 -1.006162 -1.732451 -1.369306 -1.369306 
C -1.732451 -1.006162 -1.936492 -0.513564 -1.936492 0 
C -1.936492 0.513564 -1.732451 1.006162 -1.369306 1.369306 
C -1.006162 1.732451 -0.513564 1.936492 0 1.936492 
z
" id="C0_0_5d833bf98c"/>
    </defs>
    <g clip-path="url(#p8eb41a2513)">
     <use style="fill:#ffffff;" x="127.188731" xlink:href="#C0_0_5d833bf98c" y="384.281821"/>
    </g>
    <g clip-path="url(#p8eb41a2513)">
     <use style="fill:#ffffff;" x="101.029681" xlink:href="#C0_0_5d833bf98c" y="453.211677"/>
    </g>
    <g clip-path="url(#p8eb41a2513)">
     <use style="fill:#ffffff;" x="74.398053" xlink:href="#C0_0_5d833bf98c" y="523.376314"/>
    </g>
    <g clip-path="url(#p8eb41a2513)">
     <use style="fill:#ffffff;" x="296.102907" xlink:href="#C0_0_5d833bf98c" y="52.644438"/>
    </g>
    <g clip-path="url(#p8eb41a2513)">
     <use style="fill:#ffffff;" x="270.234675" xlink:href="#C0_0_5d833bf98c" y="121.999723"/>
    </g>
    <g clip-path="url(#p8eb41a2513)">
     <use style="fill:#ffffff;" x="245.115299" xlink:href="#C0_0_5d833bf98c" y="189.923077"/>
    </g>
    <g clip-path="url(#p8eb41a2513)">
     <use style="fill:#ffffff;" x="217.887494" xlink:href="#C0_0_5d833bf98c" y="261.685667"/>
    </g>
    <g clip-path="url(#p8eb41a2513)">
     <use style="fill:#ffffff;" x="191.961098" xlink:href="#C0_0_5d833bf98c" y="329.992944"/>
    </g>
    <g clip-path="url(#p8eb41a2513)">
     <use style="fill:#ffffff;" x="165.772966" xlink:href="#C0_0_5d833bf98c" y="398.985058"/>
    </g>
    <g clip-path="url(#p8eb41a2513)">
     <use style="fill:#ffffff;" x="139.635728" xlink:href="#C0_0_5d833bf98c" y="467.863033"/>
    </g>
    <g clip-path="url(#p8eb41a2513)">
     <use style="fill:#ffffff;" x="113.142238" xlink:href="#C0_0_5d833bf98c" y="537.664499"/>
    </g>
    <g clip-path="url(#p8eb41a2513)">
     <use style="fill:#ffffff;" x="545.115542" xlink:href="#C0_0_5d833bf98c" y="68.852241"/>
    </g>
    <g clip-path="url(#p8eb41a2513)">
     <use style="fill:#ffffff;" x="519.029196" xlink:href="#C0_0_5d833bf98c" y="137.833979"/>
    </g>
    <g clip-path="url(#p8eb41a2513)">
     <use style="fill:#ffffff;" x="492.484813" xlink:href="#C0_0_5d833bf98c" y="207.095877"/>
    </g>
    <g clip-path="url(#p8eb41a2513)">
     <use style="fill:#ffffff;" x="466.376656" xlink:href="#C0_0_5d833bf98c" y="275.392778"/>
    </g>
    <g clip-path="url(#p8eb41a2513)">
     <use style="fill:#ffffff;" x="439.708676" xlink:href="#C0_0_5d833bf98c" y="346.709186"/>
    </g>
    <g clip-path="url(#p8eb41a2513)">
     <use style="fill:#ffffff;" x="413.702305" xlink:href="#C0_0_5d833bf98c" y="414.362756"/>
    </g>
    <g clip-path="url(#p8eb41a2513)">
     <use style="fill:#ffffff;" x="386.772588" xlink:href="#C0_0_5d833bf98c" y="483.302988"/>
    </g>
    <g clip-path="url(#p8eb41a2513)">
     <use style="fill:#ffffff;" x="360.584457" xlink:href="#C0_0_5d833bf98c" y="552.305479"/>
    </g>
    <g clip-path="url(#p8eb41a2513)">
     <use style="fill:#ffffff;" x="86.677829" xlink:href="#C0_0_5d833bf98c" y="52.312396"/>
    </g>
    <g clip-path="url(#p8eb41a2513)">
     <use style="fill:#ffffff;" x="60.722352" xlink:href="#C0_0_5d833bf98c" y="119.364139"/>
    </g>
    <g clip-path="url(#p8eb41a2513)">
     <use style="fill:#ffffff;" x="33.261893" xlink:href="#C0_0_5d833bf98c" y="192.652048"/>
    </g>
    <g clip-path="url(#p8eb41a2513)">
     <use style="fill:#ffffff;" x="281.612917" xlink:href="#C0_0_5d833bf98c" y="521.965136"/>
    </g>
    <g clip-path="url(#p8eb41a2513)">
     <use style="fill:#ffffff;" x="211.453153" xlink:href="#C0_0_5d833bf98c" y="495.12161"/>
    </g>
    <g clip-path="url(#p8eb41a2513)">
     <use style="fill:#ffffff;" x="30.171955" xlink:href="#C0_0_5d833bf98c" y="426.337023"/>
    </g>
    <g clip-path="url(#p8eb41a2513)">
     <use style="fill:#ffffff;" x="258.042144" xlink:href="#C0_0_5d833bf98c" y="38.096846"/>
    </g>
    <g clip-path="url(#p8eb41a2513)">
     <use style="fill:#ffffff;" x="231.454138" xlink:href="#C0_0_5d833bf98c" y="107.28611"/>
    </g>
    <g clip-path="url(#p8eb41a2513)">
     <use style="fill:#ffffff;" x="205.433227" xlink:href="#C0_0_5d833bf98c" y="174.680271"/>
    </g>
    <g clip-path="url(#p8eb41a2513)">
     <use style="fill:#ffffff;" x="178.736164" xlink:href="#C0_0_5d833bf98c" y="246.857914"/>
    </g>
    <g clip-path="url(#p8eb41a2513)">
     <use style="fill:#ffffff;" x="152.620737" xlink:href="#C0_0_5d833bf98c" y="314.957665"/>
    </g>
    <g clip-path="url(#p8eb41a2513)">
     <use style="fill:#ffffff;" x="184.959662" xlink:href="#C0_0_5d833bf98c" y="564.923077"/>
    </g>
    <g clip-path="url(#p8eb41a2513)">
     <use style="fill:#ffffff;" x="559.540099" xlink:href="#C0_0_5d833bf98c" y="469.824156"/>
    </g>
    <g clip-path="url(#p8eb41a2513)">
     <use style="fill:#ffffff;" x="485.570623" xlink:href="#C0_0_5d833bf98c" y="441.444936"/>
    </g>
    <g clip-path="url(#p8eb41a2513)">
     <use style="fill:#ffffff;" x="334.192752" xlink:href="#C0_0_5d833bf98c" y="384.240315"/>
    </g>
    <g clip-path="url(#p8eb41a2513)">
     <use style="fill:#ffffff;" x="263.771252" xlink:href="#C0_0_5d833bf98c" y="357.282651"/>
    </g>
    <g clip-path="url(#p8eb41a2513)">
     <use style="fill:#ffffff;" x="533.359237" xlink:href="#C0_0_5d833bf98c" y="539.148312"/>
    </g>
    <g clip-path="url(#p8eb41a2513)">
     <use style="fill:#ffffff;" x="563.989609" xlink:href="#C0_0_5d833bf98c" y="234.229939"/>
    </g>
    <g clip-path="url(#p8eb41a2513)">
     <use style="fill:#ffffff;" x="412.022833" xlink:href="#C0_0_5d833bf98c" y="176.56876"/>
    </g>
    <g clip-path="url(#p8eb41a2513)">
     <use style="fill:#ffffff;" x="341.601333" xlink:href="#C0_0_5d833bf98c" y="149.849751"/>
    </g>
    <g clip-path="url(#p8eb41a2513)">
     <use style="fill:#ffffff;" x="12.010391" xlink:href="#C0_0_5d833bf98c" y="23.756779"/>
    </g>
    <g clip-path="url(#p8eb41a2513)">
     <use style="fill:#ffffff;" x="464.980731" xlink:href="#C0_0_5d833bf98c" y="38.325125"/>
    </g>
    <g clip-path="url(#p8eb41a2513)">
     <use style="fill:#ffffff;" x="394.53015" xlink:href="#C0_0_5d833bf98c" y="11.36746"/>
    </g>
    <g clip-path="url(#p8eb41a2513)">
     <use style="fill:#ffffff;" x="459.36795" xlink:href="#C0_0_5d833bf98c" y="510.675706"/>
    </g>
    <g clip-path="url(#p8eb41a2513)">
     <use style="fill:#ffffff;" x="307.779237" xlink:href="#C0_0_5d833bf98c" y="453.045656"/>
    </g>
    <g clip-path="url(#p8eb41a2513)">
     <use style="fill:#ffffff;" x="237.56858" xlink:href="#C0_0_5d833bf98c" y="426.31627"/>
    </g>
    <g clip-path="url(#p8eb41a2513)">
     <use style="fill:#ffffff;" x="56.105621" xlink:href="#C0_0_5d833bf98c" y="356.940232"/>
    </g>
    <g clip-path="url(#p8eb41a2513)">
     <use style="fill:#ffffff;" x="438.530864" xlink:href="#C0_0_5d833bf98c" y="107.068207"/>
    </g>
    <g clip-path="url(#p8eb41a2513)">
     <use style="fill:#ffffff;" x="368.21115" xlink:href="#C0_0_5d833bf98c" y="80.203929"/>
    </g>
    <g clip-path="url(#p8eb41a2513)">
     <use style="fill:#ffffff;" x="316.22022" xlink:href="#C0_0_5d833bf98c" y="217.451439"/>
    </g>
    <g clip-path="url(#p8eb41a2513)">
     <use style="fill:#ffffff;" x="288.992415" xlink:href="#C0_0_5d833bf98c" y="288.830105"/>
    </g>
    <g clip-path="url(#p8eb41a2513)">
     <use style="fill:#ffffff;" x="386.990701" xlink:href="#C0_0_5d833bf98c" y="244.543996"/>
    </g>
    <g clip-path="url(#p8eb41a2513)">
     <use style="fill:#ffffff;" x="360.613538" xlink:href="#C0_0_5d833bf98c" y="316.213199"/>
    </g>
    <g clip-path="url(#p8eb41a2513)">
     <use style="fill:#ffffff;" x="538.194081" xlink:href="#C0_0_5d833bf98c" y="302.381572"/>
    </g>
    <g clip-path="url(#p8eb41a2513)">
     <use style="fill:#ffffff;" x="510.995358" xlink:href="#C0_0_5d833bf98c" y="374.258301"/>
    </g>
    <g clip-path="url(#p8eb41a2513)">
     <use style="fill:#ffffff;" x="135.004456" xlink:href="#C0_0_5d833bf98c" y="147.867875"/>
    </g>
    <g clip-path="url(#p8eb41a2513)">
     <use style="fill:#ffffff;" x="107.92206" xlink:href="#C0_0_5d833bf98c" y="220.076646"/>
    </g>
    <g clip-path="url(#p8eb41a2513)">
     <use style="fill:#ffffff;" x="161.148965" xlink:href="#C0_0_5d833bf98c" y="80.587853"/>
    </g>
    <g clip-path="url(#p8eb41a2513)">
     <use style="fill:#ffffff;" x="187.337097" xlink:href="#C0_0_5d833bf98c" y="11.076923"/>
    </g>
    <g clip-path="url(#p8eb41a2513)">
     <use style="fill:#ffffff;" x="82.380998" xlink:href="#C0_0_5d833bf98c" y="287.80285"/>
    </g>
    <g clip-path="url(#p8eb41a2513)">
     <use style="fill:#ffffff;" x="122.826466" xlink:href="#C0_0_5d833bf98c" y="461.481599"/>
    </g>
    <g clip-path="url(#p8eb41a2513)">
     <use style="fill:#ffffff;" x="115.221584" xlink:href="#C0_0_5d833bf98c" y="458.596984"/>
    </g>
   </g>
  </g>
 </g>
 <defs>
  <clipPath id="p8eb41a2513">
   <rect height="576" width="574.058387" x="0.970807" y="0"/>
  </clipPath>
 </defs>
</svg>
